<svg width="97" height="90" fill="none" xmlns="http://www.w3.org/2000/svg"><path fill-rule="evenodd" clip-rule="evenodd" d="m93.82 87.354.867-.002c.083-.94.145-1.655.207-2.374A644.307 644.307 0 0 1 97 84.864v-49.6h-7.352l-.07 1.142-.002.014v.005l-.062 1.002h-2.35V7.559l-1.183-.078h-.002l-1.114-.074-.1-1.133-.002-.014v-.003l-.002-.016-.097-1.101a1025.31 1025.31 0 0 0-2.585-.166l-.056-.93c-.028-.469-.054-.918-.086-1.427h-4.735l-.08-1.345L77.045 0H22.34l-.04.671-.122 1.987H17.49l-.145 1.74v.006l-.038.46c-.377.04-.742.09-1.098.14-.771.108-1.504.21-2.234.191-1.272-.034-1.563.543-1.545 1.673.01.695-.074 1.39-.156 2.076-.036.307-.072.612-.1.914-.412.032-.787.061-1.167.092-.368.03-.742.059-1.16.091v25.215H2.362l-.074 1.15-.068 1.062-1.14.096h-.005L0 37.656v44.8l.63.032 1.734.092v4.79h5.06l.124 1.95.042.681h82.22c-.688-2.45.805-2.665 2.516-2.648.484.005.969.003 1.492.002h.001ZM22.273 12.616c-.785.042-1.459.076-2.247.114h.007V42.44h4.614c.073.95.135 1.78.211 2.82h7.28l.155 1.734.055.624h4.712c.079.87.145 1.586.228 2.475h4.977l.059.92.093 1.454h4.653c.086.899.155 1.614.22 2.267h2.58l.097-1.51v-.002l.054-.817h6.962l.081-1.07.105-1.38h5.081l.034-.505.039-.594v-.002l.086-1.312h4.698l.06-1.234v-.001l.057-1.147h5.033l.075-1.092c.04-.57.078-1.119.118-1.725h4.694l.118-1.085.002-.017.15-1.38c1.911.384 2.046-.684 2.036-2.105-.052-6.622-.066-13.248.007-19.871.017-1.666-.042-3-2.205-2.755l-.096-1.276-.088-1.164-1.55-.157-.596-.06-.093-1.126v-.014l-.108-1.298H22.274v2.582ZM87.048 80H9.989V47.67h2.198l.04.429.171 1.897h5.036l.088 1.267.078 1.121h6.938c.079.878.141 1.545.22 2.385h5.037l.069 1.148.1 1.68h4.69l.063 1.187.04.774.022.413h5.03l.104 1.158c.037.419.074.835.117 1.296h6.999l.048.571c.052.623.099 1.186.152 1.797h4.985c.065-.702.13-1.414.21-2.306h4.667l.01-.17a692 692 0 0 0 .135-2.242h5.084c.063-.885.111-1.552.177-2.43h6.989a655.238 655.238 0 0 1 .138-2.741h5.064l.017-.297c.044-.75.082-1.392.128-2.13h4.642l.023-.246v-.008l.198-2.158h5.05c.016-.184.03-.36.046-.531a1446.147 1446.147 0 0 1 .148-1.726h2.108V80ZM34.852 32.415c1.327.175 2.078 1.047 2.253 2.617l.004-.004h25.163l.11-1.7.056-.885a468.6 468.6 0 0 0 2.146-.135v-4.625l-1.076-.105c-.379-.037-.73-.07-1.08-.106l-.194-2.243H37.192c-.042.795-.076 1.469-.114 2.243-.5.028-.966.052-1.418.075l-.808.043v4.825Z" fill="#fff"/></svg>